<svg id="圖層_1" data-name="圖層 1" xmlns="http://www.w3.org/2000/svg" viewBox="0 0 65 65"><defs><style>.cls-1{fill:#e0b872;}.cls-2{fill:#fff;}</style></defs><g id="Group_577" data-name="Group 577"><circle id="Ellipse_25" data-name="Ellipse 25" class="cls-1" cx="32.5" cy="32.5" r="30"/><g id="Group_576" data-name="Group 576"><g id="Group_202-2" data-name="Group 202-2"><path id="Path_29-2" data-name="Path 29-2" class="cls-2" d="M27,38.78h13.8a.76.76,0,0,0,.74-.56l3-10.69a.76.76,0,0,0-.73-1H25.19l-.55-2.45a.75.75,0,0,0-.74-.6H19.26a.77.77,0,0,0,0,1.53h4L26,37.44A2.29,2.29,0,0,0,27,41.83h13.8a.76.76,0,1,0,0-1.52H27a.77.77,0,0,1-.76-.77A.76.76,0,0,1,27,38.78Z"/><path id="Path_30-2" data-name="Path 30-2" class="cls-2" d="M27.16,46.39a2.11,2.11,0,1,0,2.11-2.1A2.11,2.11,0,0,0,27.16,46.39Z"/><path id="Path_31-2" data-name="Path 31-2" class="cls-2" d="M40.09,46.39a2.11,2.11,0,1,0,2.11-2.1,2.11,2.11,0,0,0-2.11,2.1Z"/></g></g><circle id="Ellipse_26" data-name="Ellipse 26" class="cls-1" cx="42.64" cy="26.11" r="7.89"/><path id="add" class="cls-2" d="M42.64,19.81A6.31,6.31,0,1,0,49,26.11h0A6.31,6.31,0,0,0,42.64,19.81Zm2.76,6.83H43.16v2.23a.52.52,0,0,1-.52.53.53.53,0,0,1-.53-.53h0V26.64H39.88a.53.53,0,0,1-.53-.53.52.52,0,0,1,.53-.52h2.23V23.35a.52.52,0,0,1,.53-.52.52.52,0,0,1,.52.52h0v2.24H45.4a.52.52,0,0,1,.52.52.52.52,0,0,1-.52.53Z"/></g></svg>