<svg id="圖層_1" data-name="圖層 1" xmlns="http://www.w3.org/2000/svg" viewBox="0 0 680 99.21"><defs><style>.cls-1{fill:none;stroke:#e7e1d3;stroke-miterlimit:10;stroke-width:5px;}.cls-2{fill:#e7e1d3;}.cls-3{isolation:isolate;}.cls-4{fill:#464f38;}</style></defs><line id="Line_66" data-name="Line 66" class="cls-1" x1="50.95" y1="33.47" x2="641.95" y2="33.47"/><circle id="Ellipse_22" data-name="Ellipse 22" class="cls-2" cx="50.45" cy="32.97" r="30"/><g id="_1" data-name=" 1" class="cls-3"><g class="cls-3"><path class="cls-4" d="M44.5,39.64H49V26.53H45.2V24A13.51,13.51,0,0,0,50,22.25h3V39.64H57V43H44.5Z"/></g></g><circle id="Ellipse_22-2" data-name="Ellipse 22-2" class="cls-2" cx="340.45" cy="32.97" r="30"/><g id="_2" data-name=" 2" class="cls-3"><g class="cls-3"><path class="cls-4" d="M333.41,40.59c5.63-5,9-8.93,9-12.13,0-2.1-1.15-3.36-3.11-3.36a5.38,5.38,0,0,0-3.81,2.13L333.21,25c1.91-2,3.75-3.13,6.58-3.13,3.92,0,6.53,2.52,6.53,6.38s-3.11,7.78-6.89,11.48c1-.11,2.41-.22,3.36-.22h4.51V43H333.41Z"/></g></g><circle id="Ellipse_22-3" data-name="Ellipse 22-3" class="cls-2" cx="641.45" cy="32.97" r="30"/><g id="_3" data-name=" 3" class="cls-3"><g class="cls-3"><path class="cls-4" d="M633.93,40.48l1.93-2.61A6.59,6.59,0,0,0,640.48,40c2.1,0,3.53-1,3.53-2.88,0-2-1.2-3.31-5.71-3.31v-3c3.81,0,5-1.31,5-3.16a2.47,2.47,0,0,0-2.77-2.6,5.85,5.85,0,0,0-3.92,1.84l-2.1-2.52a9.22,9.22,0,0,1,6.21-2.54c4,0,6.72,2,6.72,5.51A4.9,4.9,0,0,1,644,32.1v.14a5.19,5.19,0,0,1,4.15,5.1c0,3.81-3.34,6-7.28,6A8.83,8.83,0,0,1,633.93,40.48Z"/></g></g><line id="Line_66-2" data-name="Line 66" class="cls-1" x1="50.95" y1="33.47" x2="641.95" y2="33.47"/><circle id="Ellipse_22-2-2" data-name="Ellipse 22" class="cls-2" cx="50.45" cy="32.97" r="30"/><g id="_1-2" data-name=" 1" class="cls-3"><g class="cls-3"><path class="cls-4" d="M45.73,40.11h3.81V28.88H46.33V26.69a11.59,11.59,0,0,0,4.13-1.48h2.61v14.9h3.34V43H45.73Z"/></g></g><g class="cls-3"><path class="cls-4" d="M26.05,96.51H19.58v.69H18.46V89.57a13.82,13.82,0,0,1-1.09.91,4.58,4.58,0,0,0-.68-.93v5.57H13.87v1.3h-1V91.18A9.12,9.12,0,0,1,12,92.54a6.11,6.11,0,0,0-.69-1A16.47,16.47,0,0,0,13.6,84.8H11.71V83.71H17V84.8H14.75a28.83,28.83,0,0,1-.8,3.55h2.74v1.12a11.23,11.23,0,0,0,3.52-4.24H18.33v1.71h-1V84.2h3.4c.21-.52.4-1.09.56-1.64l1.12.22a14.82,14.82,0,0,1-.5,1.42H25.7v2.71H24.62V85.23H21.46a16.41,16.41,0,0,1-1.36,2.4h2.08c-.21-.48-.47-1-.69-1.47l1-.4a15.82,15.82,0,0,1,.9,1.87h2.19v1h-2.5v1.61h2.29v.93H23.07v1.7h2.29v.93H23.07v1.68h3Zm-10.4-7.12H13.87v4.67h1.78ZM22,88.64H19.58v1.61H22Zm0,2.54H19.58v1.7H22Zm-2.39,4.31H22V93.81H19.58Z"/><path class="cls-4" d="M33.15,86.22H27.52v-1h5.63Zm-.38,2.11H27.93v-.94h4.84ZM27.93,89.5h4.84v1H27.93Zm4.76,6.79H28.94V97h-1V91.66h4.76Zm-3.75-3.65v2.67h2.72V92.64Zm1.2-7.51a14.4,14.4,0,0,0-1-2.18l1-.35a13.84,13.84,0,0,1,1.05,2.12Zm2.58,10.13a10.4,10.4,0,0,0,1.12-3.36l.85.26a11.08,11.08,0,0,1-1.11,3.49Zm5.41-11c-.29,2.88-1.09,5.26-4,6.59a2.66,2.66,0,0,0-.68-.85,5.2,5.2,0,0,0,2.81-2.53c-.59-.61-1.57-1.45-2.32-2.08l.63-.67c.67.53,1.5,1.22,2.11,1.74a11.45,11.45,0,0,0,.4-2.2h-3.3v-1h7.8s0,.35,0,.51c-.17,4-.35,5.49-.73,6a1.32,1.32,0,0,1-1,.46,13.45,13.45,0,0,1-1.81,0,2.59,2.59,0,0,0-.34-1c.74.06,1.41.08,1.67.08a.58.58,0,0,0,.52-.19c.26-.29.42-1.54.55-4.77Zm.53,11.65c.52,0,.62-.27.67-2.13a2.73,2.73,0,0,0,.94.4c-.11,2.18-.4,2.69-1.5,2.69H36.69c-1.27,0-1.59-.32-1.59-1.43V91.53h1v3.89c0,.39.12.47.66.47Zm-1.52-5.51a15,15,0,0,1,1.76,2.29l-.79.55a13.59,13.59,0,0,0-1.71-2.37Zm3.71.88a17.9,17.9,0,0,1,1.41,3.3l-.91.35A19.14,19.14,0,0,0,40,91.55Z"/><path class="cls-4" d="M46.06,93.76a9.65,9.65,0,0,1-1.78,3.44,7.82,7.82,0,0,0-.89-.64,7.15,7.15,0,0,0,1.6-3Zm2.64-.58H44.2v-10h4.5Zm-1.07-9H45.24v2h2.39Zm0,3H45.24v2.05h2.39Zm0,3H45.24v2.08h2.39Zm.26,3.37A13.68,13.68,0,0,1,49.21,96l-.94.45A12.75,12.75,0,0,0,47,93.9Zm10.26,1.06h-1V96c0,.58-.13.88-.53,1.06a8.29,8.29,0,0,1-2.32.16,4.09,4.09,0,0,0-.34-1h1.82c.2,0,.28-.06.28-.27V94.56H51V97.2H50V94.56h-1v-.91h1V89.58h3v-.93H49v-.89h2.3V86.7H49.77v-.88h1.52v-1H49.36V84h1.93V82.59h1.06V84h2.37V82.59h1.07V84h2v.9h-2v1h1.7v.88h-1.7v1.06h2.29v.89h-4v.93h3.14v4.07h1ZM51,90.48v1.13h2V90.48Zm0,3.17h2v-1.2H51Zm1.31-7.83h2.37v-1H52.35Zm0,1.94h2.37V86.7H52.35Zm1.7,2.72v1.13H56.1V90.48Zm2.05,3.17v-1.2H54.05v1.2Z"/><path class="cls-4" d="M63.52,91.37V97.2H62.41V91.73l-2.64.81-.32-1.13c.82-.23,1.84-.5,3-.85V87H61a13.13,13.13,0,0,1-.71,2.37,5.42,5.42,0,0,0-.91-.53,18.62,18.62,0,0,0,1.1-5.33l1,.18c-.08.72-.19,1.45-.3,2.16h1.23V82.59h1.11v3.25h1.65V87H63.52v3.26l1.85-.57.16,1ZM74,85.26s0,.45,0,.59c-.35,7.25-.7,9.73-1.35,10.53a1.36,1.36,0,0,1-1.1.61,9.11,9.11,0,0,1-1.82,0,2.63,2.63,0,0,0-.34-1.17c.72.07,1.36.08,1.68.08a.66.66,0,0,0,.59-.27c.51-.56.87-2.93,1.19-9.27h-.77c-.8,4.2-2.56,8.46-5.22,10.57a3.37,3.37,0,0,0-1-.72c2.62-1.89,4.35-5.83,5.18-9.85H69.71c-.72,2.74-2.19,5.73-3.94,7.26a3.58,3.58,0,0,0-.94-.69c1.7-1.33,3.12-4,3.86-6.57H67.31a13.67,13.67,0,0,1-1.82,3,7.88,7.88,0,0,0-.92-.69,13.53,13.53,0,0,0,2.8-6.15l1.09.23a19.43,19.43,0,0,1-.72,2.46h5.13v0Z"/><path class="cls-4" d="M90,94.86H83.39v2.37h-1.2V94.86H75.72V93.79h6.47V92.48h-4.8v-6.2h4.8V85.12h-6V84h6V82.59h1.2V84h6.07v1.09H83.39v1.16h4.93v6.2H83.39v1.31H90Zm-11.48-6h3.67V87.28H78.52Zm3.67,2.59V89.85H78.52V91.5Zm1.2-4.22v1.63h3.75V87.28Zm3.75,2.57H83.39V91.5h3.75Z"/></g><circle id="Ellipse_22-2-3" data-name="Ellipse 22-2" class="cls-2" cx="340.45" cy="32.97" r="30"/><g id="_2-2" data-name=" 2" class="cls-3"><g class="cls-3"><path class="cls-4" d="M333.79,40.93c4.83-4.32,7.68-7.66,7.68-10.39,0-1.81-1-2.89-2.66-2.89a4.6,4.6,0,0,0-3.27,1.83l-1.92-1.92a7.22,7.22,0,0,1,5.64-2.69,5.22,5.22,0,0,1,5.6,5.47c0,3.22-2.67,6.68-5.91,9.84.89-.09,2.07-.19,2.88-.19h3.87v3H333.79Z"/></g></g><g class="cls-3"><path class="cls-4" d="M313.33,93.07c-1.55.67-3.18,1.38-4.46,1.89l-.45-1.19c.54-.15,1.18-.39,1.9-.67V87.53h-1.79V86.4h1.79V82.76h1.16V86.4h1.79v1.13h-1.79v5.12c.54-.19,1.1-.41,1.65-.63Zm4.08,1.84a19.06,19.06,0,0,1-3.72,2.29,6.14,6.14,0,0,0-.74-.83,14.11,14.11,0,0,0,3.44-2.13Zm5.74-1.74v1H313.2v-1h1.43V86.11H317c.08-.34.16-.69.23-1.07h-3.4v-1h3.57c.1-.51.16-1,.21-1.46l1.27.08c-.1.43-.2.92-.31,1.38h4.16v1h-4.38c-.1.38-.19.73-.29,1.07h3.65v7.06Zm-7.46-6.23v1h4.91v-1Zm4.91,1.74h-4.91v.95h4.91Zm-4.91,2.68h4.91v-1h-4.91Zm0,1.81h4.91V92.09h-4.91Zm4.05,1a22.88,22.88,0,0,1,3.17,2.15l-.79.83A23,23,0,0,0,319,94.94Z"/><path class="cls-4" d="M338.14,92s0,.33,0,.49c-.17,2.72-.35,3.83-.75,4.23a1.2,1.2,0,0,1-1,.41,14.1,14.1,0,0,1-1.95,0,2.46,2.46,0,0,0-.34-1,16.13,16.13,0,0,0,1.78.06c.27,0,.41,0,.54-.13s.39-1.07.53-3h-8.61a13.71,13.71,0,0,1-3,1.86,7.46,7.46,0,0,0-.7-.95A10.66,10.66,0,0,0,328.87,91H327V86.48a26.6,26.6,0,0,0,3.73-1l.74.75a23,23,0,0,1-3.4.91v1.07h3.11V89h-3.11v1.11h7.53V89h-3.05v-.85h3.05v-1h-3.32v-.88h4.4V91h-6.48a7.8,7.8,0,0,1-.83,1Zm.46-8.14v2.8h-1.14V84.92H326.18V86.7h-1.1V83.88h6.11c-.16-.36-.35-.72-.53-1l1.19-.33a14.92,14.92,0,0,1,.72,1.37Zm-12,12.44a8.83,8.83,0,0,0,1.49-2.83l.95.38a10.12,10.12,0,0,1-1.48,2.91Zm4.05-2.7a9.48,9.48,0,0,1,.58,2.76l-1,.15a9.16,9.16,0,0,0-.53-2.8Zm1.94-.13a8.7,8.7,0,0,1,1.09,2.41l-.92.29a8.93,8.93,0,0,0-1-2.46Zm2.5,2a7.29,7.29,0,0,0-1.35-1.8l.79-.37a6.72,6.72,0,0,1,1.39,1.74Z"/><path class="cls-4" d="M345.24,87h-4.58V86h4.58Zm1.26,8.26a21.63,21.63,0,0,1-4.88,2,8.2,8.2,0,0,0-.88-.89,19,19,0,0,0,4.69-1.54Zm-1.66-10.77H341v-.93h3.83Zm-2.08,3.76h10.35v6.42H342.76Zm1.15,1.89h8V89h-8Zm0,1.86h8V90.88h-8Zm0,1.88h8V92.73h-8Zm3.84-9.26a7.77,7.77,0,0,1-1.2,1.6,4.9,4.9,0,0,0-.9-.61,6.73,6.73,0,0,0,1.84-3l1.08.24c-.1.3-.23.59-.34.88h5.36l.19,0,.8.27a15.18,15.18,0,0,1-1.34,2.31l-.94-.34a9.53,9.53,0,0,0,.75-1.26H350.5v.21a3.28,3.28,0,0,1,0,.52c.84,1,2.59,1.59,4.69,1.76a4.57,4.57,0,0,0-.68,1,7.77,7.77,0,0,1-4.35-1.87c-.53.78-1.79,1.52-4.61,2a3.75,3.75,0,0,0-.64-.88c4.14-.56,4.53-1.65,4.53-2.48v-.16Zm2.4,10.15a43.16,43.16,0,0,1,4.71,1.72l-1,.69a38.26,38.26,0,0,0-4.49-1.77Z"/><path class="cls-4" d="M358.88,90.24A14.59,14.59,0,0,1,357,95.41a6.28,6.28,0,0,0-.62-1.31A12,12,0,0,0,358,90Zm1.43-1.2V97.2H359.2V89h-2.56V87.92h2.56V82.59h1.11v5.33h2.61V89Zm-2.67-1.68a17.08,17.08,0,0,0-.88-3.54l.86-.21a14.73,14.73,0,0,1,.94,3.51ZM361.05,90c.3.47,1.45,2.64,1.69,3.19l-.85.88c-.28-.87-1.17-2.92-1.5-3.6Zm1.87-6.18a34.6,34.6,0,0,1-1.31,3.59l-.79-.26a27.18,27.18,0,0,0,1.07-3.58Zm6.24,8.89v4.49H368V92.89l-5,.92-.19-1.12,5.15-.92V82.59h1.12v9l1.89-.34.18,1.09Zm-3.25-2.24a12.89,12.89,0,0,0-2.64-1.93l.56-.83a13.18,13.18,0,0,1,2.67,1.8Zm.69-3.88a13,13,0,0,0-2.51-2.06l.6-.8a12.16,12.16,0,0,1,2.52,2Z"/></g><circle id="Ellipse_22-3-2" data-name="Ellipse 22-3" class="cls-2" cx="641.45" cy="32.97" r="30"/><g id="_3-2" data-name=" 3" class="cls-3"><g class="cls-3"><path class="cls-4" d="M634.38,40.83,636,38.6a5.65,5.65,0,0,0,4,1.82c1.8,0,3-.88,3-2.47,0-1.75-1-2.83-4.89-2.83V32.58c3.26,0,4.32-1.13,4.32-2.72a2.12,2.12,0,0,0-2.38-2.23,5.07,5.07,0,0,0-3.36,1.59l-1.8-2.16a7.87,7.87,0,0,1,5.33-2.19c3.43,0,5.76,1.68,5.76,4.73a4.22,4.22,0,0,1-3,4.06v.12a4.44,4.44,0,0,1,3.56,4.36c0,3.27-2.86,5.16-6.24,5.16A7.55,7.55,0,0,1,634.38,40.83Z"/></g></g><g class="cls-3"><path class="cls-4" d="M609.66,85.29h6.05v1h-6.05Zm.67,2.1h4.88v.94h-4.88Zm0,2.08h4.87v.94h-4.87Zm4.82,6.75h-3.78V97h-1V91.6h4.8Zm-3.78-3.63v2.64h2.72V92.59Zm1.23-7.47A10.54,10.54,0,0,0,611.42,83l.93-.46a14.22,14.22,0,0,1,1.23,2Zm11.56-.05H621.7V95.41c0,.8-.2,1.21-.77,1.39a11.19,11.19,0,0,1-3.12.22,3.82,3.82,0,0,0-.48-1.21,27.39,27.39,0,0,0,2.75,0c.32,0,.45-.11.45-.41V85.07h-4.48V83.92h8.11Z"/><path class="cls-4" d="M639.89,94.93h-6.5v2.25h-1.22V94.93H625.8v-1h6.37V92.67H627.4V87.1h11v5.57h-5v1.22h6.5Zm-7.67-8.63H627V83.19h5.25ZM631.1,84H628v1.5h3.06Zm-2.54,5.42h3.61V88.06h-3.61Zm3.61,2.29V90.33h-3.61v1.38Zm5-3.65h-3.81v1.36h3.81Zm0,2.27h-3.81v1.38h3.81Zm1.59-4H633.5V83.19h5.29ZM637.68,84h-3.09v1.5h3.09Z"/><path class="cls-4" d="M656.05,96.51h-6.47v.69h-1.12V89.57a13.82,13.82,0,0,1-1.09.91,4.58,4.58,0,0,0-.68-.93v5.57h-2.82v1.3h-1V91.18a9.12,9.12,0,0,1-.83,1.36,6.11,6.11,0,0,0-.69-1,16.47,16.47,0,0,0,2.28-6.72h-1.89V83.71H647V84.8h-2.21a28.83,28.83,0,0,1-.8,3.55h2.74v1.12a11.23,11.23,0,0,0,3.52-4.24h-1.88v1.71h-1V84.2h3.4c.21-.52.4-1.09.56-1.64l1.12.22a14.82,14.82,0,0,1-.5,1.42h3.83v2.71h-1.08V85.23h-3.16a15.58,15.58,0,0,1-1.37,2.4h2.09c-.21-.48-.47-1-.69-1.47l1-.4a15.82,15.82,0,0,1,.9,1.87h2.19v1h-2.5v1.61h2.29v.93h-2.29v1.7h2.29v.93h-2.29v1.68h3Zm-10.4-7.12h-1.78v4.67h1.78Zm6.32-.75h-2.39v1.61H652Zm0,2.54h-2.39v1.7H652Zm-2.39,4.31H652V93.81h-2.39Z"/><path class="cls-4" d="M663.15,86.22h-5.63v-1h5.63Zm-.38,2.11h-4.84v-.94h4.84Zm-4.84,1.17h4.84v1h-4.84Zm4.76,6.79h-3.75V97h-1V91.66h4.76Zm-3.75-3.65v2.67h2.72V92.64Zm1.2-7.51a14.4,14.4,0,0,0-1-2.18l1-.35a13.84,13.84,0,0,1,1.05,2.12Zm2.58,10.13a10.4,10.4,0,0,0,1.12-3.36l.85.26a11.08,11.08,0,0,1-1.11,3.49Zm5.41-11c-.29,2.88-1.09,5.26-4,6.59a2.66,2.66,0,0,0-.68-.85,5.2,5.2,0,0,0,2.81-2.53c-.59-.61-1.57-1.45-2.32-2.08l.63-.67c.67.53,1.5,1.22,2.11,1.74a11.45,11.45,0,0,0,.4-2.2h-3.3v-1h7.8s0,.35,0,.51c-.17,4-.35,5.49-.73,6a1.32,1.32,0,0,1-1,.46,13.45,13.45,0,0,1-1.81,0,2.59,2.59,0,0,0-.34-1c.74.06,1.41.08,1.67.08a.58.58,0,0,0,.52-.19c.26-.29.42-1.54.55-4.77Zm.53,11.65c.52,0,.62-.27.67-2.13a2.73,2.73,0,0,0,.94.4c-.11,2.18-.4,2.69-1.5,2.69h-2.08c-1.27,0-1.59-.32-1.59-1.43V91.53h1v3.89c0,.39.11.47.66.47Zm-1.52-5.51a15,15,0,0,1,1.76,2.29l-.79.55a13.59,13.59,0,0,0-1.71-2.37Zm3.71.88a18.61,18.61,0,0,1,1.41,3.3l-.91.35A19.14,19.14,0,0,0,670,91.55Z"/></g></svg>