<svg id="圖層_1" data-name="圖層 1" xmlns="http://www.w3.org/2000/svg" viewBox="0 0 680 99.21"><defs><style>.cls-1,.cls-2{fill:none;stroke-width:5px;}.cls-1{stroke:#e7e1d3;stroke-miterlimit:10;}.cls-2{stroke:#dab471;}.cls-3{fill:#dab471;}.cls-4{isolation:isolate;}.cls-5{fill:#464f38;}.cls-6{fill:#e7e1d3;}</style></defs><line id="Line_66" data-name="Line 66" class="cls-1" x1="50.94" y1="33.61" x2="641.94" y2="33.61"/><line id="Line_66-2" data-name="Line 66" class="cls-2" x1="50.94" y1="33.61" x2="340.44" y2="33.61"/><circle id="Ellipse_22" data-name="Ellipse 22" class="cls-3" cx="50.44" cy="33.11" r="30"/><g id="_1" data-name=" 1" class="cls-4"><g class="cls-4"><path class="cls-5" d="M45.72,40.25h3.82V29H46.32V26.83a11.33,11.33,0,0,0,4.13-1.49h2.62V40.25H56.4v2.86H45.72Z"/></g></g><g class="cls-4"><path class="cls-5" d="M26,96.65H19.57v.69H18.45V89.7c-.33.32-.72.63-1.08.92a5.07,5.07,0,0,0-.69-.93v5.57H13.86v1.29h-1V91.32A10.08,10.08,0,0,1,12,92.68a6,6,0,0,0-.68-1,16.72,16.72,0,0,0,2.27-6.73H11.7V83.85H17v1.08H14.74a28.59,28.59,0,0,1-.8,3.56h2.74v1.12a11.14,11.14,0,0,0,3.52-4.24H18.33v1.71h-1V84.34h3.39c.21-.53.4-1.09.56-1.65l1.12.23a11.36,11.36,0,0,1-.5,1.42h3.83v2.71H24.62V85.37H21.45a16.41,16.41,0,0,1-1.36,2.4h2.08c-.21-.48-.47-1-.69-1.48l1-.4a15.14,15.14,0,0,1,.9,1.88h2.19v1h-2.5v1.61h2.29v.93H23.06V93h2.29v.92H23.06v1.69h3Zm-10.4-7.12H13.86V94.2h1.78ZM22,88.78H19.57v1.61H22Zm0,2.54H19.57V93H22Zm-2.39,4.31H22V93.94H19.57Z"/><path class="cls-5" d="M33.14,86.36H27.51v-1h5.63Zm-.38,2.11H27.92v-.94h4.84Zm-4.84,1.17h4.84v1H27.92Zm4.76,6.79H28.93v.73h-1V91.8h4.76Zm-3.75-3.65v2.67h2.72V92.78Zm1.2-7.51a13.1,13.1,0,0,0-1-2.18l1-.35a14.35,14.35,0,0,1,1.06,2.11ZM32.71,95.4A10.4,10.4,0,0,0,33.83,92l.85.26a11.08,11.08,0,0,1-1.11,3.49Zm5.41-11c-.29,2.88-1.09,5.27-4,6.6a2.84,2.84,0,0,0-.69-.85,5.26,5.26,0,0,0,2.82-2.53c-.6-.61-1.57-1.46-2.33-2.08l.63-.67c.67.53,1.5,1.21,2.11,1.74a11.56,11.56,0,0,0,.4-2.21h-3.3v-1h7.8s0,.35,0,.51c-.17,4-.35,5.49-.73,6a1.32,1.32,0,0,1-1,.46,17.93,17.93,0,0,1-1.81,0,2.45,2.45,0,0,0-.34-1c.74.06,1.41.08,1.67.08a.61.61,0,0,0,.53-.2c.25-.28.41-1.53.54-4.77ZM38.65,96c.53,0,.62-.28.67-2.13a3,3,0,0,0,.94.4c-.11,2.17-.4,2.69-1.5,2.69H36.68c-1.26,0-1.59-.32-1.59-1.43V91.67h1v3.89c0,.39.11.47.65.47Zm-1.52-5.51a14,14,0,0,1,1.76,2.29l-.79.54A14.38,14.38,0,0,0,36.39,91Zm3.71.88a17.23,17.23,0,0,1,1.41,3.3l-.91.35A19.14,19.14,0,0,0,40,91.69Z"/><path class="cls-5" d="M46.05,93.9a9.64,9.64,0,0,1-1.77,3.44,8,8,0,0,0-.9-.64,6.93,6.93,0,0,0,1.6-3Zm2.64-.58H44.2v-10h4.49Zm-1.07-9H45.24v2h2.38Zm0,3H45.24v2h2.38Zm0,3H45.24v2.08h2.38Zm.26,3.38a13.44,13.44,0,0,1,1.33,2.47l-1,.44A13,13,0,0,0,47,94ZM58.14,94.7h-1v1.39c0,.58-.13.88-.53,1.06a8.29,8.29,0,0,1-2.32.16,3.56,3.56,0,0,0-.34-1h1.83c.19,0,.27-.06.27-.27V94.7H51v2.64H50V94.7h-1v-.92h1V89.72h3v-.93H49V87.9h2.31V86.84H49.77V86h1.52V85H49.35v-.9h1.94V82.72h1.05V84.1h2.37V82.72h1.07V84.1h2V85h-2v1h1.7v.88h-1.7V87.9h2.29v.89H54v.93h3.14v4.06h1ZM51,90.62v1.13H53V90.62Zm0,3.16H53v-1.2H51ZM52.34,86h2.37V85H52.34Zm0,1.94h2.37V86.84H52.34ZM54,90.62v1.13h2.05V90.62Zm2.05,3.16v-1.2H54v1.2Z"/><path class="cls-5" d="M63.51,91.51v5.83H62.4V91.86l-2.64.82-.32-1.14c.82-.22,1.84-.49,3-.84V87.13H61a12.6,12.6,0,0,1-.71,2.37,4.52,4.52,0,0,0-.91-.53,19,19,0,0,0,1.11-5.33l1,.17c-.08.72-.2,1.46-.31,2.16H62.4V82.72h1.11V86h1.65v1.16H63.51v3.26l1.86-.57.16,1.05ZM74,85.4s0,.45,0,.59c-.35,7.25-.7,9.73-1.34,10.53a1.39,1.39,0,0,1-1.11.61,9.93,9.93,0,0,1-1.82,0A2.63,2.63,0,0,0,69.35,96c.72.07,1.36.08,1.68.08a.66.66,0,0,0,.59-.27c.52-.56.87-2.93,1.19-9.27H72c-.8,4.2-2.56,8.45-5.22,10.57a3.37,3.37,0,0,0-1-.72c2.63-1.89,4.35-5.83,5.19-9.85H69.7c-.72,2.74-2.19,5.73-3.93,7.25a3.78,3.78,0,0,0-1-.68c1.7-1.33,3.12-4,3.86-6.57H67.3a13,13,0,0,1-1.82,3,8,8,0,0,0-.91-.68,13.74,13.74,0,0,0,2.8-6.15l1.09.22a21.42,21.42,0,0,1-.73,2.47h5.13v0Z"/><path class="cls-5" d="M90,95H83.38v2.37h-1.2V95H75.72V93.93h6.46V92.62h-4.8v-6.2h4.8V85.25h-6V84.17h6V82.72h1.2v1.45h6.07v1.08H83.38v1.17h4.93v6.2H83.38v1.31H90Zm-11.47-6h3.66V87.41H78.52Zm3.66,2.59V90H78.52v1.65Zm1.2-4.23v1.64h3.75V87.41ZM87.13,90H83.38v1.65h3.75Z"/></g><circle id="Ellipse_22-2" data-name="Ellipse 22-2" class="cls-6" cx="340.44" cy="33.11" r="30"/><g id="_2" data-name=" 2" class="cls-4"><g class="cls-4"><path class="cls-5" d="M333.78,41.07c4.83-4.32,7.68-7.66,7.68-10.4,0-1.8-1-2.88-2.66-2.88a4.56,4.56,0,0,0-3.26,1.83l-1.92-1.92A7.19,7.19,0,0,1,339.26,25a5.21,5.21,0,0,1,5.59,5.47c0,3.22-2.67,6.67-5.91,9.84.89-.09,2.07-.19,2.88-.19h3.87v3H333.78Z"/></g></g><g class="cls-4"><path class="cls-5" d="M313.33,93.21c-1.56.67-3.19,1.38-4.47,1.89l-.45-1.19c.55-.16,1.19-.4,1.91-.67V87.67h-1.8V86.53h1.8V82.9h1.15v3.63h1.79v1.14h-1.79v5.12c.54-.19,1.1-.41,1.65-.64Zm4.08,1.84a19.44,19.44,0,0,1-3.73,2.29,6.14,6.14,0,0,0-.74-.83,13.92,13.92,0,0,0,3.44-2.13Zm5.73-1.74v1H313.2v-1h1.42V86.25H317c.08-.34.16-.69.22-1.08h-3.39v-1h3.57c.09-.51.16-1,.2-1.46l1.27.08c-.1.43-.19.91-.31,1.38h4.17v1h-4.39c-.1.39-.19.74-.29,1.08h3.65v7.06Zm-7.46-6.23v1h4.91v-1Zm4.91,1.74h-4.91v1h4.91Zm-4.91,2.68h4.91v-1h-4.91Zm0,1.81h4.91V92.23h-4.91Zm4.05,1a22.88,22.88,0,0,1,3.17,2.15l-.79.83A22.21,22.21,0,0,0,319,95.08Z"/><path class="cls-5" d="M338.13,92.15l0,.5c-.18,2.72-.35,3.82-.76,4.22a1.18,1.18,0,0,1-1,.42,14.1,14.1,0,0,1-2,0,2.37,2.37,0,0,0-.34-1,16.93,16.93,0,0,0,1.78.07c.27,0,.42,0,.54-.13s.39-1.07.53-3H328.3a13.88,13.88,0,0,1-3,1.86,8.68,8.68,0,0,0-.71-.95,10.66,10.66,0,0,0,4.29-2.91H327V86.61a23.5,23.5,0,0,0,3.73-1l.74.76a24.48,24.48,0,0,1-3.39.91v1.07h3.1v.85h-3.1v1.1h7.52v-1.1h-3v-.85h3V87.25h-3.32v-.88h4.41v4.76h-6.49a7.13,7.13,0,0,1-.83,1Zm.46-8.13v2.8h-1.13V85.06H326.17v1.78h-1.1V84h6.11a11.21,11.21,0,0,0-.53-1l1.19-.34a14,14,0,0,1,.72,1.38Zm-12,12.44a8.78,8.78,0,0,0,1.49-2.84l1,.39a10.35,10.35,0,0,1-1.47,2.91Zm4-2.71a9.54,9.54,0,0,1,.58,2.77l-1,.15a9.56,9.56,0,0,0-.52-2.81Zm1.94-.13A8.31,8.31,0,0,1,333.68,96l-.91.29a9.17,9.17,0,0,0-1-2.47Zm2.5,2a7.33,7.33,0,0,0-1.35-1.81l.79-.36a6.72,6.72,0,0,1,1.39,1.74Z"/><path class="cls-5" d="M345.23,87.11h-4.58v-1h4.58Zm1.26,8.26a21.44,21.44,0,0,1-4.88,1.95,7.39,7.39,0,0,0-.88-.89,19.26,19.26,0,0,0,4.69-1.54ZM344.83,84.6H341v-.93h3.83Zm-2.08,3.76H353.1v6.42H342.75Zm1.15,1.89h8V89.16h-8Zm0,1.85h8V91h-8Zm0,1.89h8V92.87h-8Zm3.84-9.26a8.36,8.36,0,0,1-1.2,1.6,5.18,5.18,0,0,0-.89-.61,6.91,6.91,0,0,0,1.84-3l1.07.24c-.1.3-.22.59-.34.88h5.37l.19,0,.8.27a14.38,14.38,0,0,1-1.35,2.31l-.94-.34a9.12,9.12,0,0,0,.75-1.26H350.5v.2a3.49,3.49,0,0,1-.05.53,7.2,7.2,0,0,0,4.69,1.76,4.19,4.19,0,0,0-.67,1,7.71,7.71,0,0,1-4.36-1.88c-.53.79-1.79,1.53-4.61,2a3.75,3.75,0,0,0-.64-.88c4.15-.56,4.53-1.65,4.53-2.48v-.16Zm2.4,10.14a44.33,44.33,0,0,1,4.71,1.73l-1,.69a39.64,39.64,0,0,0-4.48-1.78Z"/><path class="cls-5" d="M358.88,90.38A15.15,15.15,0,0,1,357,95.55a6.65,6.65,0,0,0-.63-1.32A11.8,11.8,0,0,0,358,90.1Zm1.42-1.2v8.16h-1.1V89.18h-2.56V88.06h2.56V82.72h1.1v5.34h2.61v1.12Zm-2.67-1.69a17.15,17.15,0,0,0-.88-3.53l.86-.21a14.58,14.58,0,0,1,.95,3.5ZM361,90.12c.3.46,1.45,2.64,1.69,3.19l-.84.88c-.29-.87-1.17-2.92-1.51-3.61Zm1.87-6.18a32.44,32.44,0,0,1-1.31,3.59l-.79-.26a25.76,25.76,0,0,0,1.08-3.58Zm6.24,8.88v4.5H368V93l-5,.91-.19-1.12,5.15-.91V82.72h1.12v9l1.89-.33.18,1.09Zm-3.25-2.24a13,13,0,0,0-2.64-1.92l.56-.83a13,13,0,0,1,2.68,1.79Zm.69-3.87a13,13,0,0,0-2.51-2.06l.61-.8a12.35,12.35,0,0,1,2.51,2Z"/></g><circle id="Ellipse_22-3" data-name="Ellipse 22-3" class="cls-6" cx="632.44" cy="33.11" r="30"/><g id="_3" data-name=" 3" class="cls-4"><g class="cls-4"><path class="cls-5" d="M625.38,41,627,38.74a5.65,5.65,0,0,0,4,1.82c1.8,0,3-.89,3-2.47,0-1.75-1-2.83-4.9-2.83V32.71c3.26,0,4.32-1.13,4.32-2.71a2.12,2.12,0,0,0-2.38-2.23,5.06,5.06,0,0,0-3.36,1.58l-1.8-2.16A7.9,7.9,0,0,1,631.23,25c3.43,0,5.76,1.68,5.76,4.73a4.2,4.2,0,0,1-3,4.05v.12a4.45,4.45,0,0,1,3.55,4.37c0,3.27-2.86,5.16-6.24,5.16A7.52,7.52,0,0,1,625.38,41Z"/></g></g><g class="cls-4"><path class="cls-5" d="M600.65,85.43h6.05v1h-6.05Zm.67,2.1h4.89v.94h-4.89Zm0,2.08h4.87v.94h-4.87Zm4.82,6.75h-3.78v.75h-1V91.74h4.8Zm-3.78-3.63v2.64h2.73V92.73Zm1.24-7.48a11.37,11.37,0,0,0-1.19-2.14l.93-.47a13.86,13.86,0,0,1,1.23,2Zm11.55,0h-2.46V95.55c0,.8-.19,1.21-.77,1.39a11.19,11.19,0,0,1-3.12.22,3.82,3.82,0,0,0-.48-1.21c1.23,0,2.4,0,2.75,0s.45-.11.45-.41V85.21H607V84.05h8.11Z"/><path class="cls-5" d="M630.88,95.07h-6.5v2.25h-1.21V95.07H616.8V94h6.37V92.81H618.4V87.24h11v5.57h-5V94h6.5Zm-7.67-8.63H618V83.33h5.25Zm-1.12-2.31H619v1.51h3.05Zm-2.54,5.43h3.62V88.2h-3.62Zm3.62,2.29V90.47h-3.62v1.38Zm5-3.65h-3.81v1.36h3.81Zm0,2.27h-3.81v1.38h3.81Zm1.59-4H624.5V83.33h5.28Zm-1.11-2.31h-3.09v1.51h3.09Z"/><path class="cls-5" d="M647,96.65h-6.46v.69h-1.12V89.7c-.34.32-.73.63-1.09.92a5.07,5.07,0,0,0-.69-.93v5.57h-2.82v1.29h-1V91.32a10.08,10.08,0,0,1-.84,1.36,6,6,0,0,0-.68-1,16.72,16.72,0,0,0,2.27-6.73H632.7V83.85H638v1.08h-2.21a28.59,28.59,0,0,1-.8,3.56h2.74v1.12a11.14,11.14,0,0,0,3.52-4.24h-1.87v1.71h-1V84.34h3.39c.21-.53.4-1.09.56-1.65l1.12.23a11.36,11.36,0,0,1-.5,1.42h3.83v2.71h-1.07V85.37h-3.17a16.41,16.41,0,0,1-1.36,2.4h2.08c-.21-.48-.47-1-.69-1.48l1-.4a15.14,15.14,0,0,1,.9,1.88h2.19v1h-2.5v1.61h2.29v.93h-2.29V93h2.29v.92h-2.29v1.69h3Zm-10.4-7.12h-1.78V94.2h1.78Zm6.32-.75h-2.38v1.61H643Zm0,2.54h-2.38V93H643Zm-2.38,4.31H643V93.94h-2.38Z"/><path class="cls-5" d="M654.14,86.36h-5.63v-1h5.63Zm-.38,2.11h-4.84v-.94h4.84Zm-4.84,1.17h4.84v1h-4.84Zm4.76,6.79h-3.75v.73h-1V91.8h4.76Zm-3.75-3.65v2.67h2.72V92.78Zm1.2-7.51a13.1,13.1,0,0,0-1-2.18l1-.35a14.35,14.35,0,0,1,1.06,2.11Zm2.58,10.13A10.4,10.4,0,0,0,654.83,92l.85.26a11.08,11.08,0,0,1-1.11,3.49Zm5.41-11c-.29,2.88-1.09,5.27-4,6.6a2.84,2.84,0,0,0-.69-.85,5.26,5.26,0,0,0,2.82-2.53c-.6-.61-1.57-1.46-2.33-2.08l.63-.67c.67.53,1.5,1.21,2.11,1.74a11.56,11.56,0,0,0,.4-2.21h-3.3v-1h7.8s0,.35,0,.51c-.17,4-.35,5.49-.73,6a1.32,1.32,0,0,1-1,.46,17.93,17.93,0,0,1-1.81,0,2.45,2.45,0,0,0-.34-1c.74.06,1.41.08,1.67.08a.6.6,0,0,0,.53-.2c.25-.28.41-1.53.54-4.77ZM659.65,96c.53,0,.62-.28.67-2.13a3.14,3.14,0,0,0,.94.4c-.11,2.17-.39,2.69-1.5,2.69h-2.08c-1.26,0-1.59-.32-1.59-1.43V91.67h1v3.89c0,.39.11.47.65.47Zm-1.52-5.51a14,14,0,0,1,1.76,2.29l-.79.54A14.38,14.38,0,0,0,657.39,91Zm3.71.88a17.23,17.23,0,0,1,1.41,3.3l-.91.35A19.14,19.14,0,0,0,661,91.69Z"/></g></svg>