<svg id="圖層_1" data-name="圖層 1" xmlns="http://www.w3.org/2000/svg" viewBox="0 0 240 48.02"><defs><style>.cls-1{fill:none;stroke:#dab471;stroke-width:3px;}.cls-2{fill:#dab471;}.cls-3{isolation:isolate;}.cls-4{fill:#464f38;}</style></defs><line id="Line_66" data-name="Line 66" class="cls-1" x1="33.57" y1="16.43" x2="217.37" y2="16.43"/><line id="Line_66-2" data-name="Line 66" class="cls-1" x1="33.57" y1="16.43" x2="123.6" y2="16.43"/><circle id="Ellipse_22" data-name="Ellipse 22" class="cls-2" cx="32.53" cy="16.27" r="13.99"/><g id="_1" data-name=" 1" class="cls-3"><g class="cls-3"><path class="cls-4" d="M30.66,18.9h1.48V14.53H30.89v-.85a4.52,4.52,0,0,0,1.61-.57h1V18.9h1.3V20H30.66Z"/></g></g><g class="cls-3"><path class="cls-4" d="M14.05,47.78H9.2v.52H8.36V42.58c-.25.24-.54.46-.81.68a4,4,0,0,0-.52-.7v4.18H4.92v1H4.15V43.79a7.28,7.28,0,0,1-.62,1A4.88,4.88,0,0,0,3,44a12.41,12.41,0,0,0,1.7-5H3.3v-.81H7.24V39H5.58A20.37,20.37,0,0,1,5,41.66H7v.84a8.24,8.24,0,0,0,2.64-3.17H8.27v1.28H7.49v-2H10a12.9,12.9,0,0,0,.42-1.24l.84.17c-.11.36-.23.73-.37,1.07h2.86v2H13V39.33H10.61a12.42,12.42,0,0,1-1,1.79h1.56c-.16-.36-.35-.76-.52-1.1l.74-.3a13.65,13.65,0,0,1,.68,1.4h1.64v.76H11.82v1.21h1.71v.7H11.82v1.27h1.71v.69H11.82V47h2.23Zm-7.8-5.34H4.92V46H6.25ZM11,41.88H9.2v1.21H11Zm0,1.91H9.2v1.27H11ZM9.2,47H11V45.75H9.2Z"/><path class="cls-4" d="M19.38,40.07H15.16v-.74h4.22Zm-.29,1.58H15.47V41h3.62Zm-3.62.88h3.62v.72H15.47ZM19,47.61h-2.8v.56h-.76v-4H19Zm-2.8-2.73v2h2v-2Zm.9-5.63a10.86,10.86,0,0,0-.75-1.63l.76-.26a10.56,10.56,0,0,1,.79,1.58Zm1.93,7.6a8.22,8.22,0,0,0,.84-2.52l.63.19a8.16,8.16,0,0,1-.83,2.61Zm4.05-8.27c-.22,2.16-.82,4-3,4.94a2.11,2.11,0,0,0-.52-.63A3.87,3.87,0,0,0,21.68,41c-.44-.45-1.17-1.09-1.74-1.56l.47-.5c.51.4,1.13.91,1.58,1.31a7.88,7.88,0,0,0,.3-1.66H19.82v-.77h5.84s0,.27,0,.39c-.13,3-.26,4.11-.55,4.48a1,1,0,0,1-.75.35A10.12,10.12,0,0,1,23,43a2,2,0,0,0-.25-.79c.55,0,1.05.06,1.25.06a.43.43,0,0,0,.39-.14c.19-.22.31-1.16.41-3.58Zm.4,8.73c.39,0,.46-.2.5-1.59a2.14,2.14,0,0,0,.71.3c-.09,1.63-.3,2-1.13,2H22c-1,0-1.19-.24-1.19-1.06V44.05h.78V47c0,.28.09.34.49.34Zm-1.14-4.12a11.14,11.14,0,0,1,1.32,1.71l-.59.41a10.75,10.75,0,0,0-1.28-1.77Zm2.78.66a12.63,12.63,0,0,1,1.05,2.47l-.68.26a14.21,14.21,0,0,0-1-2.52Z"/><path class="cls-4" d="M29.07,45.72a7.48,7.48,0,0,1-1.33,2.58,7.39,7.39,0,0,0-.68-.48,5.36,5.36,0,0,0,1.2-2.28Zm2-.43H27.67v-7.5H31Zm-.8-6.76H28.45v1.53h1.79Zm0,2.22H28.45v1.54h1.79Zm0,2.25H28.45v1.55h1.79Zm.19,2.53a9.67,9.67,0,0,1,1,1.84l-.71.34a10.15,10.15,0,0,0-1-1.88Zm7.69.79H37.4v1c0,.43-.09.66-.39.79a6.24,6.24,0,0,1-1.74.12,3.14,3.14,0,0,0-.26-.72c.63,0,1.2,0,1.37,0s.21,0,.21-.21v-1H32.8v2H32v-2h-.78v-.69H32v-3h2.27v-.7h-3v-.67H33v-.79H31.85v-.66H33v-.72H31.54v-.67H33v-1h.79v1h1.77v-1h.81v1h1.46v.67H36.36v.72h1.27v.66H36.36v.79h1.71v.67h-3v.7H37.4v3h.72ZM32.8,43.26v.85h1.46v-.85Zm0,2.37h1.46v-.9H32.8Zm1-5.86h1.77v-.72H33.78Zm0,1.45h1.77v-.79H33.78Zm1.27,2v.85h1.54v-.85Zm1.54,2.37v-.9H35.05v.9Z"/><path class="cls-4" d="M42.16,43.93V48.3h-.83V44.2l-2,.61L39.11,44c.61-.17,1.38-.38,2.22-.64V40.64H40.24a9.46,9.46,0,0,1-.53,1.78A5.06,5.06,0,0,0,39,42a14.11,14.11,0,0,0,.82-4l.78.13c-.06.54-.14,1.09-.22,1.62h.92V37.35h.83v2.43h1.23v.86H42.16v2.45l1.39-.43.12.79ZM50,39.35s0,.34,0,.44c-.26,5.44-.53,7.3-1,7.9a1,1,0,0,1-.83.45,6.78,6.78,0,0,1-1.36,0,1.83,1.83,0,0,0-.26-.87c.54,0,1,.06,1.26.06a.5.5,0,0,0,.45-.21c.38-.42.65-2.19.89-6.94h-.58c-.6,3.14-1.92,6.33-3.91,7.91a3,3,0,0,0-.74-.54c2-1.41,3.26-4.36,3.88-7.37h-1a11.64,11.64,0,0,1-2.95,5.43,3.26,3.26,0,0,0-.71-.52A10.08,10.08,0,0,0,46,40.18H45a10.21,10.21,0,0,1-1.37,2.28,5.08,5.08,0,0,0-.68-.52,10.31,10.31,0,0,0,2.1-4.61l.81.17a13.65,13.65,0,0,1-.54,1.85H50Z"/><path class="cls-4" d="M62,46.55H57.06v1.77h-.9V46.55H51.32v-.81h4.84v-1h-3.6V40.12h3.6v-.88H51.67v-.81h4.49V37.35h.9v1.08h4.55v.81H57.06v.88h3.69v4.64H57.06v1H62Zm-8.6-4.47h2.75V40.86H53.41Zm2.75,2V42.79H53.41V44Zm.9-3.17v1.22h2.81V40.86Zm2.81,1.93H57.06V44h2.81Z"/></g><circle id="Ellipse_22-2" data-name="Ellipse 22-2" class="cls-2" cx="123.6" cy="16.27" r="13.99"/><g id="_2" data-name=" 2" class="cls-3"><g class="cls-3"><path class="cls-4" d="M121.06,19.21c1.88-1.67,3-3,3-4a1,1,0,0,0-1-1.12,1.78,1.78,0,0,0-1.27.71L121,14a2.79,2.79,0,0,1,2.19-1,2,2,0,0,1,2.17,2.12c0,1.25-1,2.59-2.29,3.82.34,0,.8-.07,1.12-.07h1.5V20h-4.63Z"/></g></g><g class="cls-3"><path class="cls-4" d="M103.54,45.2c-1.17.51-2.39,1-3.35,1.42l-.34-.89c.41-.12.89-.3,1.43-.5V41.05H99.94V40.2h1.34V37.48h.86V40.2h1.35v.85h-1.35v3.84c.41-.14.83-.31,1.24-.48Zm3,1.38a14,14,0,0,1-2.79,1.72,4.42,4.42,0,0,0-.55-.63,10.39,10.39,0,0,0,2.58-1.59Zm4.3-1.31v.78h-7.45v-.78h1.07V40h1.76c.06-.26.12-.52.17-.81H103.9v-.73h2.67c.07-.38.12-.77.16-1.09l.94.06c-.07.32-.14.68-.22,1h3.11v.73h-3.28c-.07.29-.15.55-.22.81h2.74v5.28Zm-5.59-4.66v.77H109v-.77ZM109,41.92H105.3v.7H109Zm-3.68,2H109v-.74H105.3Zm0,1.35H109v-.8H105.3Zm3,.8a16.91,16.91,0,0,1,2.38,1.6l-.59.63a16.18,16.18,0,0,0-2.34-1.69Z"/><path class="cls-4" d="M122.13,44.41s0,.25,0,.37c-.13,2-.27,2.87-.57,3.17a.89.89,0,0,1-.74.31,8.92,8.92,0,0,1-1.46,0,2,2,0,0,0-.25-.78,12.27,12.27,0,0,0,1.33.05c.2,0,.31,0,.4-.1a5.35,5.35,0,0,0,.4-2.28h-6.45a10.25,10.25,0,0,1-2.27,1.39,5,5,0,0,0-.53-.7,8,8,0,0,0,3.22-2.19h-1.42V40.26a17.22,17.22,0,0,0,2.8-.78l.55.56a17,17,0,0,1-2.54.69v.8h2.32v.64h-2.32V43h5.63v-.83h-2.28v-.64h2.28v-.79h-2.48v-.66H121v3.56h-4.86a5,5,0,0,1-.62.77Zm.35-6.09v2.1h-.85V39.1h-8.46v1.33h-.82V38.32h4.58c-.12-.28-.27-.54-.4-.78l.89-.25a10.09,10.09,0,0,1,.54,1Zm-9,9.32a6.66,6.66,0,0,0,1.11-2.13l.71.29a7.64,7.64,0,0,1-1.1,2.19Zm3-2a7.15,7.15,0,0,1,.43,2.08l-.73.1a7.52,7.52,0,0,0-.39-2.1Zm1.45-.1a6.39,6.39,0,0,1,.82,1.82l-.69.21a6.57,6.57,0,0,0-.78-1.85ZM119.85,47a5.63,5.63,0,0,0-1-1.36l.58-.28a5.25,5.25,0,0,1,1,1.31Z"/><path class="cls-4" d="M127.46,40.63H124v-.72h3.43Zm1,6.19a16.37,16.37,0,0,1-3.66,1.47,4.69,4.69,0,0,0-.66-.68,14,14,0,0,0,3.52-1.15Zm-1.25-8.07H124.3v-.7h2.86Zm-1.56,2.82h7.76v4.81H125.6Zm.87,1.41h6v-.81h-6Zm0,1.39h6v-.81h-6Zm0,1.42h6V45h-6Zm2.88-6.94a6.29,6.29,0,0,1-.9,1.19,4.61,4.61,0,0,0-.67-.45,5.17,5.17,0,0,0,1.38-2.28l.8.18c-.07.23-.17.44-.25.66h4l.15,0,.6.21a11.17,11.17,0,0,1-1,1.72l-.71-.25a7.29,7.29,0,0,0,.57-.94h-1.91V39a2,2,0,0,1,0,.4,5.49,5.49,0,0,0,3.52,1.32,3.22,3.22,0,0,0-.51.7,5.77,5.77,0,0,1-3.26-1.4c-.39.59-1.34,1.14-3.45,1.46a3.13,3.13,0,0,0-.48-.65c3.1-.42,3.39-1.24,3.39-1.86v-.12Zm1.8,7.6a32.61,32.61,0,0,1,3.52,1.3l-.78.51a29,29,0,0,0-3.36-1.33Z"/><path class="cls-4" d="M137.7,43.08A11,11,0,0,1,136.32,47a4.42,4.42,0,0,0-.47-1,8.79,8.79,0,0,0,1.2-3.09Zm1.07-.9V48.3h-.83V42.18H136v-.84h1.92v-4h.83v4h1.95v.84Zm-2-1.26a13,13,0,0,0-.66-2.65l.64-.16a10.68,10.68,0,0,1,.71,2.63Zm2.55,2c.23.35,1.09,2,1.27,2.38l-.63.66c-.22-.64-.88-2.18-1.13-2.69Zm1.4-4.63a24.16,24.16,0,0,1-1,2.69l-.59-.2a19.91,19.91,0,0,0,.81-2.68Zm4.68,6.66v3.37h-.84V45.07l-3.72.68-.14-.83,3.86-.69V37.35h.84v6.73l1.42-.26.13.82ZM143,43.24a9.47,9.47,0,0,0-2-1.44l.42-.63a9.8,9.8,0,0,1,2,1.35Zm.51-2.91a9.94,9.94,0,0,0-1.88-1.54l.45-.6a9.1,9.1,0,0,1,1.89,1.46Z"/></g><circle id="Ellipse_22-3" data-name="Ellipse 22-3" class="cls-2" cx="215.3" cy="16.27" r="13.99"/><g id="_3" data-name=" 3" class="cls-3"><g class="cls-3"><path class="cls-4" d="M212.6,19.18l.65-.87a2.19,2.19,0,0,0,1.54.71c.7,0,1.17-.35,1.17-1s-.4-1.1-1.9-1.1V16c1.27,0,1.68-.44,1.68-1.05a.83.83,0,0,0-.93-.87,2,2,0,0,0-1.3.61l-.7-.84a3.07,3.07,0,0,1,2.07-.84c1.33,0,2.24.65,2.24,1.83A1.64,1.64,0,0,1,216,16.39v0a1.74,1.74,0,0,1,1.38,1.7,2.16,2.16,0,0,1-2.42,2A3,3,0,0,1,212.6,19.18Z"/></g></g><g class="cls-3"><path class="cls-4" d="M190.73,39.37h4.54v.74h-4.54Zm.51,1.58h3.66v.7h-3.66Zm0,1.55h3.64v.71h-3.64Zm3.61,5.07H192v.56h-.77v-4h3.6ZM192,44.84v2h2v-2Zm.92-5.6a8.77,8.77,0,0,0-.89-1.61l.7-.34a10.5,10.5,0,0,1,.92,1.53Zm8.66,0h-1.85V47c0,.6-.14.92-.57,1a8.63,8.63,0,0,1-2.34.17,3.09,3.09,0,0,0-.36-.92c.92,0,1.8,0,2.06,0s.34-.09.34-.32V39.21h-3.36v-.87h6.08Z"/><path class="cls-4" d="M213.4,46.59h-4.87v1.7h-.92v-1.7h-4.77v-.78h4.77V44.9H204V40.73h8.25V44.9h-3.76v.91h4.87Zm-5.75-6.46h-3.93V37.8h3.93Zm-.84-1.73h-2.29v1.13h2.29Zm-1.9,4.07h2.7v-1h-2.7Zm2.7,1.71v-1h-2.7v1Zm3.77-2.73h-2.85v1h2.85Zm0,1.7h-2.85v1h2.85Zm1.19-3h-4V37.8h4Zm-.83-1.73h-2.31v1.13h2.31Z"/><path class="cls-4" d="M225.52,47.78h-4.85v.52h-.84V42.58c-.25.24-.54.46-.81.68a4,4,0,0,0-.52-.7v4.18h-2.11v1h-.77V43.79a7.28,7.28,0,0,1-.62,1,5,5,0,0,0-.52-.77,12.41,12.41,0,0,0,1.71-5h-1.42v-.81h3.93V39h-1.65a22.14,22.14,0,0,1-.6,2.66h2.05v.84a8.33,8.33,0,0,0,2.64-3.17h-1.4v1.28H219v-2h2.54c.15-.4.3-.82.42-1.24l.84.17c-.11.36-.23.73-.37,1.07h2.86v2h-.8V39.33h-2.38a11.55,11.55,0,0,1-1,1.79h1.56c-.15-.36-.34-.76-.51-1.1l.74-.3a11.69,11.69,0,0,1,.67,1.4h1.65v.76h-1.88v1.21H225v.7h-1.72v1.27H225v.69h-1.72V47h2.24Zm-7.8-5.34h-1.33V46h1.33Zm4.74-.56h-1.79v1.21h1.79Zm0,1.91h-1.79v1.27h1.79ZM220.67,47h1.79V45.75h-1.79Z"/><path class="cls-4" d="M230.85,40.07h-4.22v-.74h4.22Zm-.29,1.58h-3.62V41h3.62Zm-3.62.88h3.62v.72h-3.62Zm3.56,5.08h-2.81v.56h-.75v-4h3.56Zm-2.81-2.73v2h2v-2Zm.9-5.63a9.83,9.83,0,0,0-.74-1.63l.76-.26a10.56,10.56,0,0,1,.79,1.58Zm1.93,7.6a7.72,7.72,0,0,0,.84-2.52l.64.19a8.41,8.41,0,0,1-.83,2.61Zm4.06-8.27c-.22,2.16-.82,4-3,4.94a2.11,2.11,0,0,0-.52-.63,3.91,3.91,0,0,0,2.11-1.9c-.44-.45-1.17-1.09-1.74-1.56l.47-.5c.5.4,1.13.91,1.58,1.31a8.57,8.57,0,0,0,.3-1.66h-2.47v-.77h5.84s0,.27,0,.39c-.13,3-.26,4.11-.55,4.48a1,1,0,0,1-.76.35,10,10,0,0,1-1.35,0,2.14,2.14,0,0,0-.25-.79c.55,0,1,.06,1.24.06a.44.44,0,0,0,.4-.14c.19-.22.31-1.16.41-3.58Zm.39,8.73c.4,0,.47-.2.51-1.59a2.18,2.18,0,0,0,.7.3c-.08,1.63-.3,2-1.12,2H233.5c-.95,0-1.19-.24-1.19-1.06V44.05h.78V47c0,.28.08.34.49.34Zm-1.14-4.12a10,10,0,0,1,1.32,1.71l-.58.41a11.5,11.5,0,0,0-1.29-1.77Zm2.79.66a13.27,13.27,0,0,1,1,2.47l-.68.26a14.21,14.21,0,0,0-1-2.52Z"/></g></svg>