<svg id="圖層_1" data-name="圖層 1" xmlns="http://www.w3.org/2000/svg" viewBox="0 0 680 99.21"><defs><style>.cls-1{fill:none;stroke:#dab471;stroke-width:5px;}.cls-2{fill:#dab471;}.cls-3{isolation:isolate;}.cls-4{fill:#464f38;}</style></defs><line id="Line_66" data-name="Line 66" class="cls-1" x1="50.94" y1="32.71" x2="641.94" y2="32.71"/><circle id="Ellipse_22" data-name="Ellipse 22" class="cls-2" cx="50.44" cy="32.21" r="30"/><g id="_1" data-name=" 1" class="cls-3"><g class="cls-3"><path class="cls-4" d="M45.72,39.35h3.82V28.12H46.32V25.94a11.71,11.71,0,0,0,4.13-1.49h2.61v14.9H56.4v2.86H45.72Z"/></g></g><g class="cls-3"><path class="cls-4" d="M26,95.75H19.57v.69H18.45V88.81c-.33.32-.72.62-1.08.91a5.07,5.07,0,0,0-.69-.93v5.57H13.86v1.3h-1V90.42A9.49,9.49,0,0,1,12,91.78a6.46,6.46,0,0,0-.68-1A16.62,16.62,0,0,0,13.59,84H11.7V83H17V84H14.74a28.42,28.42,0,0,1-.8,3.55h2.74v1.12a11.06,11.06,0,0,0,3.52-4.24H18.33v1.71h-1V83.45h3.39c.21-.53.4-1.09.56-1.65l1.12.22a11.51,11.51,0,0,1-.5,1.43h3.83v2.7H24.62V84.47H21.45a15.9,15.9,0,0,1-1.36,2.4h2.08c-.21-.48-.47-1-.69-1.47l1-.4a15,15,0,0,1,.9,1.87h2.19v1h-2.5V89.5h2.29v.92H23.06v1.7h2.29v.93H23.06v1.68h3Zm-10.4-7.12H13.86v4.68h1.78ZM22,87.88H19.57V89.5H22Zm0,2.54H19.57v1.7H22Zm-2.39,4.31H22V93.05H19.57Z"/><path class="cls-4" d="M33.14,85.46H27.51v-1h5.63Zm-.38,2.12H27.92v-1h4.84Zm-4.84,1.16h4.84v1H27.92Zm4.76,6.79H28.93v.74h-1V90.9h4.76Zm-3.75-3.65v2.67h2.72V91.88Zm1.2-7.51a13.4,13.4,0,0,0-1-2.17l1-.35A13.43,13.43,0,0,1,31.21,84Zm2.58,10.14a10.54,10.54,0,0,0,1.12-3.37l.85.26a11.08,11.08,0,0,1-1.11,3.49Zm5.41-11c-.29,2.88-1.09,5.26-4,6.59a2.84,2.84,0,0,0-.69-.85,5.18,5.18,0,0,0,2.82-2.53c-.6-.6-1.57-1.45-2.33-2.08l.63-.67c.67.53,1.5,1.22,2.11,1.75a11.7,11.7,0,0,0,.4-2.21h-3.3v-1h7.8s0,.36,0,.52c-.17,4-.35,5.49-.73,6a1.36,1.36,0,0,1-1,.47,17.93,17.93,0,0,1-1.81,0,2.49,2.49,0,0,0-.34-1.06c.74.06,1.41.08,1.67.08a.61.61,0,0,0,.53-.19c.25-.29.41-1.54.54-4.77Zm.53,11.65c.53,0,.62-.27.67-2.13a2.62,2.62,0,0,0,.94.4c-.11,2.18-.4,2.69-1.5,2.69H36.68c-1.26,0-1.59-.32-1.59-1.42V90.78h1v3.89c0,.38.11.46.65.46Zm-1.52-5.51a14.85,14.85,0,0,1,1.76,2.29l-.79.55a13.59,13.59,0,0,0-1.71-2.37Zm3.71.88a17.23,17.23,0,0,1,1.41,3.3l-.91.35A19.14,19.14,0,0,0,40,90.79Z"/><path class="cls-4" d="M46.05,93a9.64,9.64,0,0,1-1.77,3.44,9.47,9.47,0,0,0-.9-.64,6.93,6.93,0,0,0,1.6-3Zm2.64-.57H44.2v-10h4.49Zm-1.07-9H45.24v2h2.38Zm0,3H45.24v2h2.38Zm0,3H45.24v2.08h2.38Zm.26,3.38a13.38,13.38,0,0,1,1.33,2.46l-1,.45A12.69,12.69,0,0,0,47,93.15Zm10.26,1h-1v1.39c0,.58-.13.88-.53,1.06a8.29,8.29,0,0,1-2.32.16,3.68,3.68,0,0,0-.34-1c.83,0,1.6,0,1.83,0s.27-.07.27-.28V93.8H51v2.64H50V93.8h-1v-.91h1V88.82h3v-.93H49V87h2.31V85.94H49.77v-.88h1.52v-1H49.35v-.89h1.94V81.83h1.05v1.38h2.37V81.83h1.07v1.38h2v.89h-2v1h1.7v.88h-1.7V87h2.29v.89H54v.93h3.14v4.07h1ZM51,89.72v1.14H53V89.72Zm0,3.17H53v-1.2H51Zm1.31-7.83h2.37v-1H52.34Zm0,1.94h2.37V85.94H52.34ZM54,89.72v1.14h2.05V89.72Zm2.05,3.17v-1.2H54v1.2Z"/><path class="cls-4" d="M63.51,90.62v5.82H62.4V91c-.94.29-1.85.58-2.64.81l-.32-1.13c.82-.23,1.84-.5,3-.85V86.23H61a12.38,12.38,0,0,1-.71,2.37,5.72,5.72,0,0,0-.91-.53,19,19,0,0,0,1.11-5.33l1,.18c-.08.72-.2,1.45-.31,2.16H62.4V81.83h1.11v3.25h1.65v1.15H63.51V89.5l1.86-.58L65.53,90ZM74,84.5s0,.45,0,.59c-.35,7.26-.7,9.74-1.34,10.54a1.38,1.38,0,0,1-1.11.6,9.11,9.11,0,0,1-1.82,0,2.59,2.59,0,0,0-.34-1.16c.72.06,1.36.08,1.68.08a.67.67,0,0,0,.59-.28c.52-.56.87-2.93,1.19-9.26H72c-.8,4.19-2.56,8.45-5.22,10.56a3.56,3.56,0,0,0-1-.72c2.63-1.89,4.35-5.83,5.19-9.84H69.7c-.72,2.73-2.19,5.73-3.93,7.25a4.08,4.08,0,0,0-1-.69c1.7-1.33,3.12-4,3.86-6.56H67.3a13.45,13.45,0,0,1-1.82,3,8,8,0,0,0-.91-.69,13.74,13.74,0,0,0,2.8-6.15l1.09.23a20.68,20.68,0,0,1-.73,2.46H74Z"/><path class="cls-4" d="M90,94.11H83.38v2.37h-1.2V94.11H75.72V93h6.46V91.72h-4.8V85.53h4.8V84.36h-6V83.27h6V81.83h1.2v1.44h6.07v1.09H83.38v1.17h4.93v6.19H83.38V93H90Zm-11.47-6h3.66V86.52H78.52Zm3.66,2.59V89.1H78.52v1.64Zm1.2-4.22v1.63h3.75V86.52Zm3.75,2.58H83.38v1.64h3.75Z"/></g><circle id="Ellipse_22-2" data-name="Ellipse 22-2" class="cls-2" cx="340.44" cy="32.21" r="30"/><g id="_2" data-name=" 2" class="cls-3"><g class="cls-3"><path class="cls-4" d="M333.78,40.17c4.83-4.32,7.68-7.66,7.68-10.39,0-1.8-1-2.88-2.66-2.88a4.58,4.58,0,0,0-3.26,1.82l-1.92-1.92a7.19,7.19,0,0,1,5.64-2.69,5.21,5.21,0,0,1,5.59,5.48c0,3.21-2.67,6.67-5.91,9.84.89-.1,2.07-.2,2.88-.2h3.87v3H333.78Z"/></g></g><g class="cls-3"><path class="cls-4" d="M313.33,92.31c-1.56.68-3.19,1.38-4.47,1.89L308.41,93c.55-.16,1.19-.4,1.91-.67V86.77h-1.8V85.64h1.8V82h1.15v3.63h1.79v1.13h-1.79V91.9l1.65-.64Zm4.08,1.84a19,19,0,0,1-3.73,2.29,6.14,6.14,0,0,0-.74-.83,13.92,13.92,0,0,0,3.44-2.13Zm5.73-1.74v1H313.2v-1h1.42V85.35H317c.08-.34.16-.69.22-1.07h-3.39v-1h3.57c.09-.51.16-1,.2-1.45l1.27.08c-.1.43-.19.91-.31,1.37h4.17v1h-4.39c-.1.38-.19.73-.29,1.07h3.65v7.06Zm-7.46-6.23v1h4.91v-1Zm4.91,1.75h-4.91v.94h4.91Zm-4.91,2.67h4.91v-1h-4.91Zm0,1.81h4.91V91.34h-4.91Zm4.05,1.06a22,22,0,0,1,3.17,2.14l-.79.83A22.22,22.22,0,0,0,319,94.19Z"/><path class="cls-4" d="M338.13,91.26l0,.49c-.18,2.72-.35,3.83-.76,4.23a1.2,1.2,0,0,1-1,.41,12.67,12.67,0,0,1-2,0,2.37,2.37,0,0,0-.34-1,16.13,16.13,0,0,0,1.78.06c.27,0,.42,0,.54-.13s.39-1.07.53-3H328.3a13.51,13.51,0,0,1-3,1.86,7.73,7.73,0,0,0-.71-.94,10.68,10.68,0,0,0,4.29-2.92H327V85.72a23.5,23.5,0,0,0,3.73-1l.74.75a23.16,23.16,0,0,1-3.39.91v1.08h3.1v.84h-3.1v1.11h7.52V88.26h-3v-.84h3V86.36h-3.32v-.88h4.41v4.75h-6.49a7.2,7.2,0,0,1-.83,1Zm.46-8.13v2.8h-1.13V84.17H326.17v1.77h-1.1V83.13h6.11a11.21,11.21,0,0,0-.53-1l1.19-.34a12.94,12.94,0,0,1,.72,1.38Zm-12,12.43a8.83,8.83,0,0,0,1.49-2.83l1,.38A10.28,10.28,0,0,1,327.57,96Zm4-2.7a9.54,9.54,0,0,1,.58,2.77l-1,.14a9.5,9.5,0,0,0-.52-2.8Zm1.94-.13a8.08,8.08,0,0,1,1.09,2.42l-.91.28a9.25,9.25,0,0,0-1-2.46Zm2.5,2a7.33,7.33,0,0,0-1.35-1.81l.79-.37a6.89,6.89,0,0,1,1.39,1.74Z"/><path class="cls-4" d="M345.23,86.21h-4.58v-1h4.58Zm1.26,8.26a21.92,21.92,0,0,1-4.88,2,8.28,8.28,0,0,0-.88-.9A18.84,18.84,0,0,0,345.42,94ZM344.83,83.7H341v-.93h3.83Zm-2.08,3.76H353.1v6.42H342.75Zm1.15,1.89h8V88.26h-8Zm0,1.86h8V90.12h-8Zm0,1.89h8V92h-8Zm3.84-9.27a7.77,7.77,0,0,1-1.2,1.6,5.18,5.18,0,0,0-.89-.61,6.91,6.91,0,0,0,1.84-3l1.07.24c-.1.31-.22.59-.34.88h5.37l.19-.05.8.28a14.71,14.71,0,0,1-1.35,2.3l-.94-.34a8.56,8.56,0,0,0,.75-1.26H350.5V84a3.61,3.61,0,0,1-.05.53,7.25,7.25,0,0,0,4.69,1.76,3.92,3.92,0,0,0-.67.94,7.7,7.7,0,0,1-4.36-1.87c-.53.78-1.79,1.52-4.61,1.95a4,4,0,0,0-.64-.88c4.15-.56,4.53-1.65,4.53-2.48v-.16ZM350.14,94a42.23,42.23,0,0,1,4.71,1.73l-1,.68a38,38,0,0,0-4.48-1.77Z"/><path class="cls-4" d="M358.88,89.48A15,15,0,0,1,357,94.65a6.32,6.32,0,0,0-.63-1.31,12,12,0,0,0,1.6-4.13Zm1.42-1.2v8.16h-1.1V88.28h-2.56V87.16h2.56V81.83h1.1v5.33h2.61v1.12Zm-2.67-1.68a17.08,17.08,0,0,0-.88-3.54l.86-.21a14.78,14.78,0,0,1,.95,3.51ZM361,89.22c.3.47,1.45,2.64,1.69,3.19l-.84.88c-.29-.86-1.17-2.91-1.51-3.6Zm1.87-6.17a32.23,32.23,0,0,1-1.31,3.58l-.79-.26a25.76,25.76,0,0,0,1.08-3.58Zm6.24,8.88v4.5H368V92.14l-5,.91-.19-1.12L368,91V81.83h1.12v9l1.89-.34.18,1.09Zm-3.25-2.24a12.61,12.61,0,0,0-2.64-1.92l.56-.84a13,13,0,0,1,2.68,1.8Zm.69-3.88a13.42,13.42,0,0,0-2.51-2.06l.61-.8a12.35,12.35,0,0,1,2.51,2Z"/></g><circle id="Ellipse_22-3" data-name="Ellipse 22-3" class="cls-2" cx="632.44" cy="32.21" r="30"/><g id="_3" data-name=" 3" class="cls-3"><g class="cls-3"><path class="cls-4" d="M625.38,40.07,627,37.84a5.66,5.66,0,0,0,4,1.83c1.8,0,3-.89,3-2.48,0-1.75-1-2.83-4.9-2.83V31.82c3.26,0,4.32-1.13,4.32-2.72a2.12,2.12,0,0,0-2.38-2.23,5.12,5.12,0,0,0-3.36,1.59l-1.8-2.16a7.87,7.87,0,0,1,5.33-2.19c3.43,0,5.76,1.68,5.76,4.73a4.22,4.22,0,0,1-3,4.06V33a4.44,4.44,0,0,1,3.55,4.37c0,3.26-2.86,5.16-6.24,5.16A7.52,7.52,0,0,1,625.38,40.07Z"/></g></g><g class="cls-3"><path class="cls-4" d="M600.65,84.53h6.05v1h-6.05Zm.67,2.1h4.89v1h-4.89Zm0,2.08h4.87v1h-4.87Zm4.82,6.76h-3.78v.75h-1V90.84h4.8Zm-3.78-3.64v2.64h2.73V91.83Zm1.24-7.47a11.43,11.43,0,0,0-1.19-2.15l.93-.46a13.86,13.86,0,0,1,1.23,2Zm11.55,0h-2.46V94.65c0,.8-.19,1.22-.77,1.39a11.07,11.07,0,0,1-3.12.23,3.87,3.87,0,0,0-.48-1.22c1.23,0,2.4,0,2.75,0s.45-.12.45-.42V84.31H607V83.16h8.11Z"/><path class="cls-4" d="M630.88,94.17h-6.5v2.26h-1.21V94.17H616.8v-1h6.37V91.91H618.4V86.34h11v5.57h-5v1.22h6.5Zm-7.67-8.63H618v-3.1h5.25Zm-1.12-2.3H619v1.5h3.05Zm-2.54,5.42h3.62V87.3h-3.62ZM623.17,91V89.58h-3.62V91Zm5-3.65h-3.81v1.36h3.81Zm0,2.28h-3.81V91h3.81Zm1.59-4H624.5v-3.1h5.28Zm-1.11-2.3h-3.09v1.5h3.09Z"/><path class="cls-4" d="M647,95.75h-6.46v.69h-1.12V88.81c-.34.32-.73.62-1.09.91a5.07,5.07,0,0,0-.69-.93v5.57h-2.82v1.3h-1V90.42a9.49,9.49,0,0,1-.84,1.36,6.46,6.46,0,0,0-.68-1A16.62,16.62,0,0,0,634.59,84H632.7V83H638V84h-2.21a28.42,28.42,0,0,1-.8,3.55h2.74v1.12a11.06,11.06,0,0,0,3.52-4.24h-1.87v1.71h-1V83.45h3.39c.21-.53.4-1.09.56-1.65l1.12.22a11.51,11.51,0,0,1-.5,1.43h3.83v2.7h-1.07V84.47h-3.17a15.9,15.9,0,0,1-1.36,2.4h2.08c-.21-.48-.47-1-.69-1.47l1-.4a15,15,0,0,1,.9,1.87h2.19v1h-2.5V89.5h2.29v.92h-2.29v1.7h2.29v.93h-2.29v1.68h3Zm-10.4-7.12h-1.78v4.68h1.78Zm6.32-.75h-2.38V89.5H643Zm0,2.54h-2.38v1.7H643Zm-2.38,4.31H643V93.05h-2.38Z"/><path class="cls-4" d="M654.14,85.46h-5.63v-1h5.63Zm-.38,2.12h-4.84v-1h4.84Zm-4.84,1.16h4.84v1h-4.84Zm4.76,6.79h-3.75v.74h-1V90.9h4.76Zm-3.75-3.65v2.67h2.72V91.88Zm1.2-7.51a13.4,13.4,0,0,0-1-2.17l1-.35A13.43,13.43,0,0,1,652.21,84Zm2.58,10.14a10.54,10.54,0,0,0,1.12-3.37l.85.26a11.08,11.08,0,0,1-1.11,3.49Zm5.41-11c-.29,2.88-1.09,5.26-4,6.59a2.84,2.84,0,0,0-.69-.85,5.18,5.18,0,0,0,2.82-2.53c-.6-.6-1.57-1.45-2.33-2.08l.63-.67c.67.53,1.5,1.22,2.11,1.75a11.7,11.7,0,0,0,.4-2.21h-3.3v-1h7.8s0,.36,0,.52c-.17,4-.35,5.49-.73,6a1.36,1.36,0,0,1-1,.47,17.93,17.93,0,0,1-1.81,0,2.49,2.49,0,0,0-.34-1.06c.74.06,1.41.08,1.67.08a.6.6,0,0,0,.53-.19c.25-.29.41-1.54.54-4.77Zm.53,11.65c.53,0,.62-.27.67-2.13a2.7,2.7,0,0,0,.94.4c-.11,2.18-.39,2.69-1.5,2.69h-2.08c-1.26,0-1.59-.32-1.59-1.42V90.78h1v3.89c0,.38.11.46.65.46Zm-1.52-5.51a14.85,14.85,0,0,1,1.76,2.29l-.79.55a13.59,13.59,0,0,0-1.71-2.37Zm3.71.88a17.23,17.23,0,0,1,1.41,3.3l-.91.35A19.14,19.14,0,0,0,661,90.79Z"/></g></svg>