<svg id="圖層_1" data-name="圖層 1" xmlns="http://www.w3.org/2000/svg" viewBox="0 0 300 300"><defs><style>.cls-1,.cls-2{fill:#4a4a4a;}.cls-2{font-size:48px;font-family:FranklinGothic-MediumCond, Franklin Gothic Medium Cond;}</style></defs><title>edit</title><path class="cls-1" d="M228.68,30.46c-.93-.07-1.42-.13-1.92-.13q-76.37,0-152.74.13a46.3,46.3,0,0,0-19,3.62c-3.18,1.42-6.31,3.36-6,7.43s3.2,6.3,6.82,7.46a77.51,77.51,0,0,0,7.66,1.67V38.06c5.52,0,10.78-.5,15.9.14,5.55.7,7.43,3.59,7.43,9.13V260.72H228.68V208.35c0-.67-.22-1.45,0-2,.5-1,1.21-2.49,2-2.57,1.5-.16,1.8,1.27,1.8,2.66q0,27.63,0,55.25c0,2.69-1.47,2.91-3.52,2.91q-32.5,0-65,0H86.82c0,4.92,0,9.49,0,14.05,0,3.75-1.7,6.52-5.2,7.63-8.33,2.62-16.83,3.32-25.35,1.13-7.76-2-11.2-6.69-11.2-14.63q0-114.49-.07-229c0-6.48,2.13-10.46,9.22-13.53A49.52,49.52,0,0,1,74,26.61q77.63-.13,155.25-.09c2.84,0,3.23.43,3.24,3.42v86.5c0,1.49.24,3.4-1.91,3.35s-1.9-1.94-1.9-3.44V30.46ZM48.93,49.61V273.43c0,5.49,2.38,8.57,7.74,10.1,7.43,2.12,14.85,1.35,22.21-.3,3.37-.76,4.13-2,4.13-5.47V51.85C71.44,54.5,60.09,56.68,48.93,49.61Zm18.65,1.33c4.16-.78,8.12-1.27,11.91-2.35,1.38-.4,2.37-2.19,3.54-3.34-1.23-1.11-2.34-3-3.71-3.2a111.32,111.32,0,0,0-11.74-.81Z"/><text class="cls-2" transform="translate(123.11 173.19)">COURSE</text></svg>