<svg id="圖層_2" data-name="圖層 2" xmlns="http://www.w3.org/2000/svg" viewBox="0 0 244.05 235.12"><defs><style>.cls-1{fill:none;stroke:#4a4a4a;stroke-linecap:round;stroke-linejoin:round;stroke-width:5px;}</style></defs><title>course</title><path class="cls-1" d="M157,46.24H84.63A40.81,40.81,0,0,0,43.82,87.06V225.3a40.81,40.81,0,0,0,40.81,40.82H224a40.82,40.82,0,0,0,40.82-40.82V160.84" transform="translate(-41.32 -33.5)"/><path class="cls-1" d="M257.84,37.66l24.22,24.21a2.76,2.76,0,0,1,0,3.89L158.14,189.68a27.14,27.14,0,0,1-10.21,6.4l-33.54,11.67a2.87,2.87,0,0,1-3.68-3.54l10.67-34.84a30.45,30.45,0,0,1,7.77-12.82L249.88,37.63A5.64,5.64,0,0,1,257.84,37.66Z" transform="translate(-41.32 -33.5)"/><line class="cls-1" x1="190.54" y1="21.57" x2="219.61" y2="50.64"/></svg>