<svg id="圖層_1" data-name="圖層 1" xmlns="http://www.w3.org/2000/svg" viewBox="0 0 24.85 22.9"><defs><style>.cls-1{fill:#fff;}</style></defs><path id="Path_29" data-name="Path 29" class="cls-1" d="M7.4,16.73H21.19a.77.77,0,0,0,.73-.55L25,5.53a.74.74,0,0,0-.5-.93H5.64L5.09,2.11a.79.79,0,0,0-.74-.6H.76A.77.77,0,0,0,.76,3h3L6.49,15.4a2.28,2.28,0,0,0,.91,4.38H21.19a.76.76,0,0,0,0-1.52H7.4a.77.77,0,0,1,0-1.53Z" transform="translate(-0.18 -1.51)"/><path id="Path_30" data-name="Path 30" class="cls-1" d="M6.62,22.09a2.32,2.32,0,1,0,2.32-2.32h0a2.3,2.3,0,0,0-2.31,2.31Z" transform="translate(-0.18 -1.51)"/><path id="Path_31" data-name="Path 31" class="cls-1" d="M17.28,22.09a2.32,2.32,0,1,0,2.32-2.32h0A2.32,2.32,0,0,0,17.28,22.09Z" transform="translate(-0.18 -1.51)"/></svg>