<svg id="圖層_1" data-name="圖層 1" xmlns="http://www.w3.org/2000/svg" viewBox="0 0 26 26"><defs><style>.cls-1{fill:#465038;}</style></defs><g id="Group_10" data-name="Group 10"><path class="cls-1" d="M21,.5H5.06A4.54,4.54,0,0,0,.5,5V20.94A4.55,4.55,0,0,0,5,25.5H20.94A4.55,4.55,0,0,0,25.5,21V5.06A4.55,4.55,0,0,0,21,.5Zm-.87,16A29.43,29.43,0,0,1,13,21.73c-1,.41-.83-.26-.79-.49s.13-.78.13-.78a1.89,1.89,0,0,0,0-.82c-.1-.25-.5-.39-.8-.45-4.37-.58-7.61-3.64-7.61-7.29,0-4.07,4.08-7.39,9.1-7.39s9.1,3.32,9.1,7.39h0A6.57,6.57,0,0,1,20.11,16.45Z"/><g id="g7966"><path id="path7968" class="cls-1" d="M11.11,9.93h-.64a.17.17,0,0,0-.17.18h0v4a.17.17,0,0,0,.17.17h.64a.18.18,0,0,0,.18-.17h0v-4a.18.18,0,0,0-.18-.18h0"/></g><g id="g7970"><path id="path7972" class="cls-1" d="M15.5,9.93h-.63a.18.18,0,0,0-.18.18v2.36L12.87,10v0h0l0,0h0v0h-.7a.18.18,0,0,0-.18.18v4a.18.18,0,0,0,.18.17h.64a.18.18,0,0,0,.18-.17V11.72l1.82,2.46a.08.08,0,0,0,0,0h.74a.18.18,0,0,0,.18-.18v-4a.18.18,0,0,0-.18-.18"/></g><g id="g7974"><path id="path7976" class="cls-1" d="M9.57,13.26H7.84V10.11a.18.18,0,0,0-.18-.18H7a.18.18,0,0,0-.18.18v4h0a.21.21,0,0,0,0,.12h0a.21.21,0,0,0,.12.05H9.57a.18.18,0,0,0,.17-.18v-.64a.17.17,0,0,0-.17-.17"/></g><g id="g7978"><path id="path7980" class="cls-1" d="M19,10.93a.18.18,0,0,0,.18-.18h0v-.64A.18.18,0,0,0,19,9.93H16.48a.17.17,0,0,0-.12.05h0a.17.17,0,0,0-.05.13h0v4h0a.13.13,0,0,0,.05.12h0a.13.13,0,0,0,.12.05H19a.18.18,0,0,0,.18-.17h0v-.64a.18.18,0,0,0-.18-.18H17.29v-.67H19a.18.18,0,0,0,.18-.18h0v-.63A.17.17,0,0,0,19,11.6H17.29v-.67Z"/></g></g></svg>