<?xml version="1.0" encoding="utf-8"?>
<!-- Generator: Adobe Illustrator 24.1.2, SVG Export Plug-In . SVG Version: 6.00 Build 0)  -->
<svg version="1.1" id="圖層_1" xmlns="http://www.w3.org/2000/svg" xmlns:xlink="http://www.w3.org/1999/xlink" x="0px" y="0px"
	 viewBox="0 0 26 26" style="enable-background:new 0 0 26 26;" xml:space="preserve">
<style type="text/css">
	.st0{fill:#FFFFFF;}
</style>
<path id="search-solid" class="st0" d="M25,22l-4.8-4.8c-0.2-0.2-0.5-0.3-0.8-0.3h-0.8c3.4-4.4,2.6-10.6-1.7-14S6.2,0.2,2.8,4.6
	s-2.6,10.6,1.7,14c3.6,2.8,8.7,2.8,12.3,0v0.8c0,0.3,0.1,0.6,0.3,0.8L22,25c0.4,0.4,1.2,0.5,1.6,0c0,0,0,0,0,0l0,0l1.4-1.4
	C25.4,23.2,25.4,22.4,25,22z M10.7,16.8c-3.4,0-6.1-2.8-6.1-6.2s2.8-6.1,6.1-6.1s6.2,2.8,6.2,6.1v0l0,0
	C16.8,14.1,14.1,16.8,10.7,16.8L10.7,16.8z"/>
</svg>
