<svg id="圖層_1" data-name="圖層 1" xmlns="http://www.w3.org/2000/svg" viewBox="0 0 25 25"><defs><style>.cls-1{fill:#465038;}</style></defs><path id="Path_29" data-name="Path 29" class="cls-1" d="M7.4,16.73H21.19a.77.77,0,0,0,.73-.55L25,5.53a.75.75,0,0,0-.52-.94l-.21,0H5.64L5.09,2.11a.78.78,0,0,0-.74-.6H.76A.77.77,0,0,0,.76,3h3L6.49,15.4a2.28,2.28,0,0,0,.91,4.38H21.19a.76.76,0,0,0,0-1.52H7.4a.77.77,0,0,1,0-1.53Z"/><path id="Path_30" data-name="Path 30" class="cls-1" d="M6.62,22.09a2.32,2.32,0,1,0,2.31-2.32A2.31,2.31,0,0,0,6.62,22.09Z"/><path id="Path_31" data-name="Path 31" class="cls-1" d="M17.28,22.09a2.32,2.32,0,1,0,2.32-2.32,2.32,2.32,0,0,0-2.32,2.32Z"/></svg>