<svg id="圖層_1" data-name="圖層 1" xmlns="http://www.w3.org/2000/svg" viewBox="0 0 26 26"><defs><style>.cls-1{fill:#465038;}</style></defs><path class="cls-1" d="M13.05,10.28c-3.61,0-3.61,5.45,0,5.45S16.65,10.28,13.05,10.28Z"/><path class="cls-1" d="M12.32,6.3h0c-5.46,0-6,.11-6,6.71s.19,6.71,6.71,6.71c3.57,0,6.48.42,6.66-3.4C20.2,5.51,19.31,6.29,12.32,6.3Zm.73,10.9a4.2,4.2,0,1,1,4.2-4.2A4.2,4.2,0,0,1,13.05,17.2ZM18.4,8.64a1,1,0,0,1-2,0,1,1,0,0,1,1-1h0a1,1,0,0,1,1,1Z"/><path class="cls-1" d="M25.47,5.94A5.34,5.34,0,0,0,20.78.66,22.61,22.61,0,0,0,17.1.54C6.54.55,4.22.08,2.14,2.24S.58,6.43.58,13c0,5.45-1,10.92,4,12.2,1.56.4,15.33.4,16.88,0a5.36,5.36,0,0,0,4-5.15C25.5,19.64,25.5,6.36,25.47,5.94ZM20.8,18.37c-1.23,3.15-4.54,2.82-7.75,2.82s-6.54.3-7.75-2.82c-.5-1.28-.43-3.26-.43-5.36,0-2.4-.07-4.08.43-5.37,1.21-3.12,4.39-2.82,7.75-2.82,3.11,0,5.23-.19,6.8,1.37S21.23,9.81,21.23,13C21.23,15.41,21.3,17.07,20.8,18.37Z"/></svg>