<svg id="圖層_3" data-name="圖層 3" xmlns="http://www.w3.org/2000/svg" viewBox="0 0 185 240"><defs><style>.cls-1{fill:none;stroke:#4a4a4a;stroke-linecap:round;stroke-linejoin:round;stroke-width:5px;}</style></defs><title>list</title><path class="cls-1" d="M237.5,66.51V254.63a7.87,7.87,0,0,1-7.87,7.87H65.37a7.87,7.87,0,0,1-7.87-7.87V35.37a7.87,7.87,0,0,1,7.87-7.87H195a7.84,7.84,0,0,1,5.26,2l34.65,31.14A7.85,7.85,0,0,1,237.5,66.51Z" transform="translate(-55 -25)"/><path class="cls-1" d="M194.5,27.5l-1.32,34.78a4.68,4.68,0,0,0,5,4.85L235,64.5" transform="translate(-55 -25)"/><circle class="cls-1" cx="35.5" cy="70.5" r="9"/><line class="cls-1" x1="59.5" y1="70.5" x2="154.4" y2="70.5"/><circle class="cls-1" cx="35.5" cy="121.5" r="9"/><line class="cls-1" x1="59.5" y1="121.5" x2="154.4" y2="121.5"/><circle class="cls-1" cx="35.5" cy="172.5" r="9"/><line class="cls-1" x1="59.5" y1="172.5" x2="154.4" y2="172.5"/></svg>