<svg id="圖層_1" data-name="圖層 1" xmlns="http://www.w3.org/2000/svg" viewBox="0 0 30 30"><defs><style>.cls-1{fill:#fff;}</style></defs><g id="shop"><g id="Group_561" data-name="Group 561"><g id="Group_560" data-name="Group 560"><path id="Path_234" data-name="Path 234" class="cls-1" d="M19.37,13.52a3.68,3.68,0,0,1-4.37,0,3.69,3.69,0,0,1-4.38,0,3.56,3.56,0,0,1-4.37,0V23A2.19,2.19,0,0,0,8.43,25.2h3.65v-8a.73.73,0,0,1,.73-.73h4.37a.73.73,0,0,1,.73.73v8h3.65A2.19,2.19,0,0,0,23.74,23h0V13.52A3.56,3.56,0,0,1,19.37,13.52Z"/></g></g><g id="Group_563" data-name="Group 563"><g id="Group_562" data-name="Group 562"><path id="Path_235" data-name="Path 235" class="cls-1" d="M6.25,10.63a2.19,2.19,0,0,0,2.18,2.18h0a2.12,2.12,0,0,0,1.63-.75.76.76,0,0,1,1.07,0l0,0a2.21,2.21,0,0,0,3.1.17l.17-.17a.75.75,0,0,1,1.06,0,.08.08,0,0,1,0,0,2.21,2.21,0,0,0,3.1.17l.17-.17a.75.75,0,0,1,1.06,0l0,0a2.18,2.18,0,0,0,3.82-1.43H6.25Z"/></g></g><g id="Group_565" data-name="Group 565"><g id="Group_564" data-name="Group 564"><path id="Path_236" data-name="Path 236" class="cls-1" d="M7,4.8a.73.73,0,0,0-.69.5L5,9.17H9.9V4.8Z"/></g></g><g id="Group_567" data-name="Group 567"><g id="Group_566" data-name="Group 566"><rect id="Rectangle_355" data-name="Rectangle 355" class="cls-1" x="11.35" y="4.8" width="2.92" height="4.37"/></g></g><g id="Group_569" data-name="Group 569"><g id="Group_568" data-name="Group 568"><path id="Path_237" data-name="Path 237" class="cls-1" d="M23.71,5.3A.73.73,0,0,0,23,4.8H20.1V9.17H25Z"/></g></g><g id="Group_571" data-name="Group 571"><g id="Group_570" data-name="Group 570"><rect id="Rectangle_356" data-name="Rectangle 356" class="cls-1" x="15.73" y="4.8" width="2.92" height="4.37"/></g></g></g></svg>