<?xml version="1.0" encoding="utf-8"?>
<!-- Generator: Adobe Illustrator 24.2.1, SVG Export Plug-In . SVG Version: 6.00 Build 0)  -->
<svg version="1.1" id="shopping-cart" xmlns="http://www.w3.org/2000/svg" xmlns:xlink="http://www.w3.org/1999/xlink" x="0px"
	 y="0px" viewBox="0 0 58 51" style="enable-background:new 0 0 58 51;" xml:space="preserve">
<style type="text/css">
	.st0{fill:#FFFFFF;}
</style>
<path id="Path_29" class="st0" d="M18.8,34h30.7c0.8,0,1.4-0.5,1.6-1.2L58,9c0.3-0.9-0.3-1.8-1.2-2.1c-0.2,0-0.3-0.1-0.5-0.1H14.9
	l-1.2-5.5C13.5,0.6,12.8,0,12,0H1.7C0.8,0,0,0.8,0,1.7s0.8,1.7,1.7,1.7h8.9L16.8,31c-2.6,1.1-3.8,4.1-2.6,6.7
	c0.8,1.9,2.6,3.1,4.7,3.1h30.7c0.9,0,1.7-0.8,1.7-1.7s-0.8-1.7-1.7-1.7l0,0H18.8c-0.9,0-1.7-0.8-1.7-1.7S17.9,34,18.8,34z"/>
<path id="Path_30" class="st0" d="M17.1,45.9c0,2.8,2.3,5.1,5.1,5.1c2.8,0,5.1-2.3,5.1-5.1s-2.3-5.1-5.1-5.1
	C19.4,40.8,17.1,43.1,17.1,45.9z"/>
<path id="Path_31" class="st0" d="M41,45.9c0,2.8,2.3,5.1,5.1,5.1c2.8,0,5.1-2.3,5.1-5.1c0-2.8-2.3-5.1-5.1-5.1
	C43.3,40.8,41,43.1,41,45.9z"/>
</svg>
